solid OpenSCAD_Model
  facet normal -1 0 0
    outer loop
      vertex 0 100 0
      vertex 0 180 2
      vertex 0 180 0
    endloop
  endfacet
  facet normal -1 -0 0
    outer loop
      vertex 0 180 2
      vertex 0 100 0
      vertex 0 100 2
    endloop
  endfacet
  facet normal 0 0 1
    outer loop
      vertex 105 180 2
      vertex 37.6 154.1 2
      vertex 105 100 2
    endloop
  endfacet
  facet normal -0 0 1
    outer loop
      vertex 0 180 2
      vertex 37.6 154.1 2
      vertex 105 180 2
    endloop
  endfacet
  facet normal 0 0 1
    outer loop
      vertex 10 154.1 2
      vertex 0 180 2
      vertex 10 126.5 2
    endloop
  endfacet
  facet normal 0 0 1
    outer loop
      vertex 37.6 154.1 2
      vertex 0 180 2
      vertex 10 154.1 2
    endloop
  endfacet
  facet normal -0 0 1
    outer loop
      vertex 37.6 126.5 2
      vertex 105 100 2
      vertex 37.6 154.1 2
    endloop
  endfacet
  facet normal 0 0 1
    outer loop
      vertex 0 100 2
      vertex 37.6 126.5 2
      vertex 10 126.5 2
    endloop
  endfacet
  facet normal 0 0 1
    outer loop
      vertex 37.6 126.5 2
      vertex 0 100 2
      vertex 105 100 2
    endloop
  endfacet
  facet normal 0 0 1
    outer loop
      vertex 0 100 2
      vertex 10 126.5 2
      vertex 0 180 2
    endloop
  endfacet
  facet normal 1 -0 0
    outer loop
      vertex 105 100 2
      vertex 105 180 0
      vertex 105 180 2
    endloop
  endfacet
  facet normal 1 0 0
    outer loop
      vertex 105 180 0
      vertex 105 100 2
      vertex 105 100 0
    endloop
  endfacet
  facet normal 0 1 -0
    outer loop
      vertex 105 180 0
      vertex 0 180 2
      vertex 105 180 2
    endloop
  endfacet
  facet normal 0 1 0
    outer loop
      vertex 0 180 2
      vertex 105 180 0
      vertex 0 180 0
    endloop
  endfacet
  facet normal 0 0 -1
    outer loop
      vertex 105 100 0
      vertex 37.6 126.5 0
      vertex 105 180 0
    endloop
  endfacet
  facet normal 0 0 -1
    outer loop
      vertex 0 100 0
      vertex 37.6 126.5 0
      vertex 105 100 0
    endloop
  endfacet
  facet normal -0 0 -1
    outer loop
      vertex 10 126.5 0
      vertex 0 100 0
      vertex 10 154.1 0
    endloop
  endfacet
  facet normal -0 0 -1
    outer loop
      vertex 37.6 126.5 0
      vertex 0 100 0
      vertex 10 126.5 0
    endloop
  endfacet
  facet normal 0 0 -1
    outer loop
      vertex 37.6 154.1 0
      vertex 105 180 0
      vertex 37.6 126.5 0
    endloop
  endfacet
  facet normal 0 0 -1
    outer loop
      vertex 0 180 0
      vertex 37.6 154.1 0
      vertex 10 154.1 0
    endloop
  endfacet
  facet normal 0 0 -1
    outer loop
      vertex 37.6 154.1 0
      vertex 0 180 0
      vertex 105 180 0
    endloop
  endfacet
  facet normal 0 0 -1
    outer loop
      vertex 0 180 0
      vertex 10 154.1 0
      vertex 0 100 0
    endloop
  endfacet
  facet normal 0 -1 0
    outer loop
      vertex 0 100 0
      vertex 105 100 2
      vertex 0 100 2
    endloop
  endfacet
  facet normal 0 -1 -0
    outer loop
      vertex 105 100 2
      vertex 0 100 0
      vertex 105 100 0
    endloop
  endfacet
  facet normal 1 -0 0
    outer loop
      vertex 10 126.5 2
      vertex 10 154.1 0
      vertex 10 154.1 2
    endloop
  endfacet
  facet normal 1 0 0
    outer loop
      vertex 10 154.1 0
      vertex 10 126.5 2
      vertex 10 126.5 0
    endloop
  endfacet
  facet normal -1 0 0
    outer loop
      vertex 37.6 126.5 0
      vertex 37.6 154.1 2
      vertex 37.6 154.1 0
    endloop
  endfacet
  facet normal -1 -0 0
    outer loop
      vertex 37.6 154.1 2
      vertex 37.6 126.5 0
      vertex 37.6 126.5 2
    endloop
  endfacet
  facet normal 0 -1 0
    outer loop
      vertex 10 154.1 0
      vertex 37.6 154.1 2
      vertex 10 154.1 2
    endloop
  endfacet
  facet normal 0 -1 -0
    outer loop
      vertex 37.6 154.1 2
      vertex 10 154.1 0
      vertex 37.6 154.1 0
    endloop
  endfacet
  facet normal 0 1 -0
    outer loop
      vertex 37.6 126.5 0
      vertex 10 126.5 2
      vertex 37.6 126.5 2
    endloop
  endfacet
  facet normal 0 1 0
    outer loop
      vertex 10 126.5 2
      vertex 37.6 126.5 0
      vertex 10 126.5 0
    endloop
  endfacet
endsolid OpenSCAD_Model
