solid OpenSCAD_Model
  facet normal -1 0 0
    outer loop
      vertex 0 100 0
      vertex 0 170 2
      vertex 0 170 0
    endloop
  endfacet
  facet normal -1 -0 0
    outer loop
      vertex 0 170 2
      vertex 0 100 0
      vertex 0 100 2
    endloop
  endfacet
  facet normal 0 0 1
    outer loop
      vertex 95 170 2
      vertex 33 149 2
      vertex 95 100 2
    endloop
  endfacet
  facet normal -0 0 1
    outer loop
      vertex 0 170 2
      vertex 33 149 2
      vertex 95 170 2
    endloop
  endfacet
  facet normal 0 0 1
    outer loop
      vertex 5 149 2
      vertex 0 170 2
      vertex 5 121 2
    endloop
  endfacet
  facet normal 0 0 1
    outer loop
      vertex 33 149 2
      vertex 0 170 2
      vertex 5 149 2
    endloop
  endfacet
  facet normal -0 0 1
    outer loop
      vertex 33 121 2
      vertex 95 100 2
      vertex 33 149 2
    endloop
  endfacet
  facet normal 0 0 1
    outer loop
      vertex 0 100 2
      vertex 33 121 2
      vertex 5 121 2
    endloop
  endfacet
  facet normal 0 0 1
    outer loop
      vertex 33 121 2
      vertex 0 100 2
      vertex 95 100 2
    endloop
  endfacet
  facet normal 0 0 1
    outer loop
      vertex 0 100 2
      vertex 5 121 2
      vertex 0 170 2
    endloop
  endfacet
  facet normal 1 -0 0
    outer loop
      vertex 95 100 2
      vertex 95 170 0
      vertex 95 170 2
    endloop
  endfacet
  facet normal 1 0 0
    outer loop
      vertex 95 170 0
      vertex 95 100 2
      vertex 95 100 0
    endloop
  endfacet
  facet normal 0 0 -1
    outer loop
      vertex 95 100 0
      vertex 33 121 0
      vertex 95 170 0
    endloop
  endfacet
  facet normal 0 0 -1
    outer loop
      vertex 0 100 0
      vertex 33 121 0
      vertex 95 100 0
    endloop
  endfacet
  facet normal -0 0 -1
    outer loop
      vertex 5 121 0
      vertex 0 100 0
      vertex 5 149 0
    endloop
  endfacet
  facet normal -0 0 -1
    outer loop
      vertex 33 121 0
      vertex 0 100 0
      vertex 5 121 0
    endloop
  endfacet
  facet normal 0 0 -1
    outer loop
      vertex 33 149 0
      vertex 95 170 0
      vertex 33 121 0
    endloop
  endfacet
  facet normal 0 0 -1
    outer loop
      vertex 0 170 0
      vertex 33 149 0
      vertex 5 149 0
    endloop
  endfacet
  facet normal 0 0 -1
    outer loop
      vertex 33 149 0
      vertex 0 170 0
      vertex 95 170 0
    endloop
  endfacet
  facet normal 0 0 -1
    outer loop
      vertex 0 170 0
      vertex 5 149 0
      vertex 0 100 0
    endloop
  endfacet
  facet normal 0 -1 0
    outer loop
      vertex 0 100 0
      vertex 95 100 2
      vertex 0 100 2
    endloop
  endfacet
  facet normal 0 -1 -0
    outer loop
      vertex 95 100 2
      vertex 0 100 0
      vertex 95 100 0
    endloop
  endfacet
  facet normal 0 1 -0
    outer loop
      vertex 95 170 0
      vertex 0 170 2
      vertex 95 170 2
    endloop
  endfacet
  facet normal 0 1 0
    outer loop
      vertex 0 170 2
      vertex 95 170 0
      vertex 0 170 0
    endloop
  endfacet
  facet normal 1 -0 0
    outer loop
      vertex 5 121 2
      vertex 5 149 0
      vertex 5 149 2
    endloop
  endfacet
  facet normal 1 0 0
    outer loop
      vertex 5 149 0
      vertex 5 121 2
      vertex 5 121 0
    endloop
  endfacet
  facet normal -1 0 0
    outer loop
      vertex 33 121 0
      vertex 33 149 2
      vertex 33 149 0
    endloop
  endfacet
  facet normal -1 -0 0
    outer loop
      vertex 33 149 2
      vertex 33 121 0
      vertex 33 121 2
    endloop
  endfacet
  facet normal 0 -1 0
    outer loop
      vertex 5 149 0
      vertex 33 149 2
      vertex 5 149 2
    endloop
  endfacet
  facet normal 0 -1 -0
    outer loop
      vertex 33 149 2
      vertex 5 149 0
      vertex 33 149 0
    endloop
  endfacet
  facet normal 0 1 -0
    outer loop
      vertex 33 121 0
      vertex 5 121 2
      vertex 33 121 2
    endloop
  endfacet
  facet normal 0 1 0
    outer loop
      vertex 5 121 2
      vertex 33 121 0
      vertex 5 121 0
    endloop
  endfacet
endsolid OpenSCAD_Model
